<svg id="visual" viewBox="0 0 960 300" width="960" height="300" xmlns="http://www.w3.org/2000/svg" xmlns:xlink="http://www.w3.org/1999/xlink" version="1.1"><rect x="0" y="0" width="960" height="300" fill="#140021"></rect><path d="M0 231L160 231L160 227L320 227L320 203L480 203L480 226L640 226L640 189L800 189L800 204L960 204L960 205L960 0L960 0L800 0L800 0L640 0L640 0L480 0L480 0L320 0L320 0L160 0L160 0L0 0Z" fill="#2c163b"></path><path d="M0 175L160 175L160 138L320 138L320 159L480 159L480 178L640 178L640 172L800 172L800 168L960 168L960 167L960 0L960 0L800 0L800 0L640 0L640 0L480 0L480 0L320 0L320 0L160 0L160 0L0 0Z" fill="#3a1456"></path><path d="M0 124L160 124L160 89L320 89L320 104L480 104L480 109L640 109L640 114L800 114L800 118L960 118L960 128L960 0L960 0L800 0L800 0L640 0L640 0L480 0L480 0L320 0L320 0L160 0L160 0L0 0Z" fill="#480e72"></path><path d="M0 67L160 67L160 47L320 47L320 66L480 66L480 74L640 74L640 72L800 72L800 52L960 52L960 71L960 0L960 0L800 0L800 0L640 0L640 0L480 0L480 0L320 0L320 0L160 0L160 0L0 0Z" fill="#560090"></path></svg>